{"accessors":[{"bufferView":0,"componentType":5126,"count":4,"max":[1.0,1.0,1.0],"min":[-1.0,1.0,-1.0],"normalized":false,"type":"VEC3"},{"bufferView":1,"componentType":5126,"count":4,"max":[-1.0,-3.0456227e-05,-3.057986e-05,1.0],"min":[-1.0,-3.0456227e-05,-3.057986e-05,1.0],"normalized":false,"type":"VEC4"},{"bufferView":2,"componentType":5126,"count":4,"max":[-3.0456229e-05,1.0,-2.9802326e-08],"min":[-3.0456229e-05,1.0,-2.9802326e-08],"normalized":false,"type":"VEC3"},{"bufferView":3,"componentType":5126,"count":4,"max":[0.8749981,0.49999237],"min":[0.6249943,0.24998856],"normalized":false,"type":"VEC2"},{"bufferView":4,"componentType":5121,"count":6,"max":[3],"min":[0],"normalized":false,"type":"SCALAR"},{"bufferView":5,"componentType":5126,"count":4,"max":[1.0,-1.0,1.0],"min":[-1.0,-1.0,-1.0],"normalized":false,"type":"VEC3"},{"bufferView":6,"componentType":5126,"count":4,"max":[1.0,1.5259022e-05,1.5258657e-05,1.0],"min":[1.0,1.5259022e-05,1.5258657e-05,1.0],"normalized":false,"type":"VEC4"},{"bufferView":7,"componentType":5126,"count":4,"max":[1.5258657e-05,-1.0,2.3917588e-05],"min":[1.5258657e-05,-1.0,2.3917588e-05],"normalized":false,"type":"VEC3"},{"bufferView":8,"componentType":5126,"count":4,"max":[0.37499046,0.49999237],"min":[0.12498665,0.24998856],"normalized":false,"type":"VEC2"},{"bufferView":9,"componentType":5126,"count":16,"max":[1.0,1.0,1.0],"min":[-1.0,-1.0,-1.0],"normalized":false,"type":"VEC3"},{"bufferView":10,"componentType":5126,"count":16,"max":[7.370114e-05,1.0,7.367134e-05,1.0],"min":[-1.7851591e-05,0.99999994,0.0,1.0],"normalized":false,"type":"VEC4"},{"bufferView":11,"componentType":5126,"count":16,"max":[1.0,7.367134e-05,1.0],"min":[-1.0,0.0,-1.0],"normalized":false,"type":"VEC3"},{"bufferView":12,"componentType":5126,"count":16,"max":[0.6249943,1.0],"min":[0.37499046,0.0],"normalized":false,"type":"VEC2"},{"bufferView":13,"componentType":5121,"count":24,"max":[15],"min":[0],"normalized":false,"type":"SCALAR"}],"asset":{"copyright":"The Creators of 'VoxelKingdom'","generator":"GDRE Tools vv2.6.0","version":"2.0"},"bufferViews":[{"buffer":0,"byteLength":48,"byteStride":12,"target":34962},{"buffer":0,"byteLength":64,"byteOffset":48,"byteStride":16,"target":34962},{"buffer":0,"byteLength":48,"byteOffset":112,"byteStride":12,"target":34962},{"buffer":0,"byteLength":32,"byteOffset":160,"byteStride":8,"target":34962},{"buffer":0,"byteLength":6,"byteOffset":192,"target":34963},{"buffer":0,"byteLength":48,"byteOffset":200,"byteStride":12,"target":34962},{"buffer":0,"byteLength":64,"byteOffset":248,"byteStride":16,"target":34962},{"buffer":0,"byteLength":48,"byteOffset":312,"byteStride":12,"target":34962},{"buffer":0,"byteLength":32,"byteOffset":360,"byteStride":8,"target":34962},{"buffer":0,"byteLength":192,"byteOffset":392,"byteStride":12,"target":34962},{"buffer":0,"byteLength":256,"byteOffset":584,"byteStride":16,"target":34962},{"buffer":0,"byteLength":192,"byteOffset":840,"byteStride":12,"target":34962},{"buffer":0,"byteLength":128,"byteOffset":1032,"byteStride":8,"target":34962},{"buffer":0,"byteLength":24,"byteOffset":1160,"target":34963}],"buffers":[{"byteLength":1184,"uri":"cube0.bin"}],"extensionsUsed":["GODOT_single_root"],"materials":[{"doubleSided":true,"name":"Top","pbrMetallicRoughness":{"baseColorFactor":[0.00014866491,0.80000716,0.005911322,1.0],"metallicFactor":0.0,"roughnessFactor":0.5}},{"doubleSided":true,"name":"Bottom","pbrMetallicRoughness":{"baseColorFactor":[0.026691535,0.0060419184,0.80001533,1.0],"metallicFactor":0.0,"roughnessFactor":0.5}},{"doubleSided":true,"name":"Sides","pbrMetallicRoughness":{"baseColorFactor":[0.80000716,0.0063157007,0.0024899703,1.0],"metallicFactor":0.0,"roughnessFactor":1.0}}],"meshes":[{"name":"Cube","primitives":[{"attributes":{"NORMAL":2,"POSITION":0,"TANGENT":1,"TEXCOORD_0":3},"indices":4,"material":0,"mode":4},{"attributes":{"NORMAL":7,"POSITION":5,"TANGENT":6,"TEXCOORD_0":8},"indices":4,"material":1,"mode":4},{"attributes":{"NORMAL":11,"POSITION":9,"TANGENT":10,"TEXCOORD_0":12},"indices":13,"material":2,"mode":4}]}],"nodes":[{"children":[1],"name":"cube"},{"mesh":0,"name":"Cube","scale":[0.125,0.125,0.125]}],"scene":0,"scenes":[{"name":"cube","nodes":[0]}]}