{"accessors":[{"bufferView":0,"componentType":5126,"count":1590,"max":[4.403671,13.201717,2.3799555],"min":[-4.403671,1.1899247,-1.2656207],"normalized":false,"type":"VEC3"},{"bufferView":1,"componentType":5126,"count":1590,"max":[1.0,1.0000001,1.0,1.0],"min":[-1.0,-1.0,-1.0,-1.0],"normalized":false,"type":"VEC4"},{"bufferView":2,"componentType":5126,"count":1590,"max":[1.0,1.0,1.0],"min":[-1.0,-1.0,-1.0],"normalized":false,"type":"VEC3"},{"bufferView":3,"componentType":5126,"count":1590,"max":[0.9375,0.75],"min":[-0.0078250095,-0.007816449],"normalized":false,"type":"VEC2"},{"bufferView":4,"componentType":5123,"count":1590,"max":[1589],"min":[0],"normalized":false,"type":"SCALAR"}],"asset":{"copyright":"The Creators of 'VoxelKingdom'","generator":"GDRE Tools vv2.6.0","version":"2.0"},"bufferViews":[{"buffer":0,"byteLength":19080,"byteStride":12,"target":34962},{"buffer":0,"byteLength":25440,"byteOffset":19080,"byteStride":16,"target":34962},{"buffer":0,"byteLength":19080,"byteOffset":44520,"byteStride":12,"target":34962},{"buffer":0,"byteLength":12720,"byteOffset":63600,"byteStride":8,"target":34962},{"buffer":0,"byteLength":3180,"byteOffset":76320,"target":34963},{"buffer":0,"byteLength":4965,"byteOffset":79500}],"buffers":[{"byteLength":84465,"uri":"20260418_193043_rikafinished0.bin"}],"extensionsUsed":["GODOT_single_root"],"images":[{"bufferView":5,"mimeType":"image/png","name":"20260418_193043_rikafinished"}],"materials":[{"name":"20260418_193043_rikafinished","pbrMetallicRoughness":{"baseColorFactor":[1.0,1.0,1.0,1.0],"baseColorTexture":{"index":0},"metallicFactor":0.0,"roughnessFactor":1.0}}],"meshes":[{"name":"folder","primitives":[{"attributes":{"NORMAL":2,"POSITION":0,"TANGENT":1,"TEXCOORD_0":3},"indices":4,"material":0,"mode":4}]}],"nodes":[{"children":[1],"name":"20260418_193043_rikafinished"},{"mesh":0,"name":"Mesh"}],"samplers":[{"magFilter":9728,"minFilter":9728,"wrapS":10497,"wrapT":10497}],"scene":0,"scenes":[{"name":"20260418_193043_rikafinished","nodes":[0]}],"textures":[{"sampler":0,"source":0}]}