{
 "asset": { "version": "2.0" },
 "scene": 0,
 "scenes": [{ "nodes": [0] }],
 "nodes": [{"mesh":0}],
 "meshes": [{"name":"folder","primitives":[{"attributes":{"POSITION":0,"NORMAL":1,"TEXCOORD_0":2},"indices":3,"material":0}]}],
 "materials": [{
 "name" : "20260418_193043_rikafinished",
 "pbrMetallicRoughness": {
 "baseColorTexture": { "index": 0 },
 "metallicFactor": 0.0,
 "roughnessFactor": 1.0
 }
 }],
 "samplers": [{ "magFilter": 9728, "minFilter": 9728 }],
 "textures": [{ "source": 0, "sampler": 0 }],
 "images": [{ "uri": "20260418_193043_rikafinished.png" }],
 "accessors": [{"bufferView":0,"byteOffset":0,"componentType":5126,"count":1590,"type":"VEC3","min":[-4.40367094,1.1899247,-1.26562069],"max":[4.40367094,13.201717,2.3799556]},{"bufferView":1,"byteOffset":0,"componentType":5126,"count":1590,"type":"VEC3"},{"bufferView":2,"byteOffset":0,"componentType":5126,"count":1590,"type":"VEC2"},{"bufferView":3,"byteOffset":0,"componentType":5123,"count":1590,"type":"SCALAR"}],
 "bufferViews": [{"buffer":0,"byteOffset":0,"byteLength":19080,"target":34962},{"buffer":0,"byteOffset":19080,"byteLength":19080,"target":34962},{"buffer":0,"byteOffset":38160,"byteLength":12720,"target":34962},{"buffer":0,"byteOffset":50880,"byteLength":3180,"target":34963}],
 "buffers": [{ "uri": "20260418_193043_rikafinished.bin", "byteLength": 54060 }]
}