{
 "asset": { "version": "2.0" },
 "scene": 0,
 "scenes": [{ "nodes": [0,1,2,3,4,5,6,7,8,9,10,11,12,13,14,15] }],
 "nodes": [{"mesh":0},{"mesh":1},{"mesh":2},{"mesh":3},{"mesh":4},{"mesh":5},{"mesh":6},{"mesh":7},{"mesh":8},{"mesh":9},{"mesh":10},{"mesh":11},{"mesh":12},{"mesh":13},{"mesh":14},{"mesh":15}],
 "meshes": [{"name":"Head","primitives":[{"attributes":{"POSITION":0,"NORMAL":1,"TEXCOORD_0":2},"indices":3,"material":0}]},{"name":"Head.1","primitives":[{"attributes":{"POSITION":4,"NORMAL":5,"TEXCOORD_0":6},"indices":7,"material":0}]},{"name":"plane.2","primitives":[{"attributes":{"POSITION":8,"NORMAL":9,"TEXCOORD_0":10},"indices":11,"material":0}]},{"name":"plane","primitives":[{"attributes":{"POSITION":12,"NORMAL":13,"TEXCOORD_0":14},"indices":15,"material":0}]},{"name":"plane","primitives":[{"attributes":{"POSITION":16,"NORMAL":17,"TEXCOORD_0":18},"indices":19,"material":0}]},{"name":"plane","primitives":[{"attributes":{"POSITION":20,"NORMAL":21,"TEXCOORD_0":22},"indices":23,"material":0}]},{"name":"plane.1","primitives":[{"attributes":{"POSITION":24,"NORMAL":25,"TEXCOORD_0":26},"indices":27,"material":0}]},{"name":"cube","primitives":[{"attributes":{"POSITION":28,"NORMAL":29,"TEXCOORD_0":30},"indices":31,"material":0}]},{"name":"pent.prism","primitives":[{"attributes":{"POSITION":32,"NORMAL":33,"TEXCOORD_0":34},"indices":35,"material":0}]},{"name":"cylinder","primitives":[{"attributes":{"POSITION":36,"NORMAL":37,"TEXCOORD_0":38},"indices":39,"material":0}]},{"name":"cube","primitives":[{"attributes":{"POSITION":40,"NORMAL":41,"TEXCOORD_0":42},"indices":43,"material":0}]},{"name":"cube.3","primitives":[{"attributes":{"POSITION":44,"NORMAL":45,"TEXCOORD_0":46},"indices":47,"material":0}]},{"name":"cube.5","primitives":[{"attributes":{"POSITION":48,"NORMAL":49,"TEXCOORD_0":50},"indices":51,"material":0}]},{"name":"pent.prism.1","primitives":[{"attributes":{"POSITION":52,"NORMAL":53,"TEXCOORD_0":54},"indices":55,"material":0}]},{"name":"pent.prism.2","primitives":[{"attributes":{"POSITION":56,"NORMAL":57,"TEXCOORD_0":58},"indices":59,"material":0}]},{"name":"cube.6","primitives":[{"attributes":{"POSITION":60,"NORMAL":61,"TEXCOORD_0":62},"indices":63,"material":0}]}],
 "materials": [{
 "name" : "20260418_193043_rikafinished",
 "pbrMetallicRoughness": {
 "baseColorTexture": { "index": 0 },
 "metallicFactor": 0.0,
 "roughnessFactor": 1.0
 }
 }],
 "samplers": [{ "magFilter": 9728, "minFilter": 9728 }],
 "textures": [{ "source": 0, "sampler": 0 }],
 "images": [{ "uri": "20260418_193043_rikafinished.png" }],
 "accessors": [{"bufferView":0,"byteOffset":0,"componentType":5126,"count":258,"type":"VEC3","min":[-0.000250933504,8.50921359,-0.875275655],"max":[1.45671408,12.920467,2.09375]},{"bufferView":1,"byteOffset":0,"componentType":5126,"count":258,"type":"VEC3"},{"bufferView":2,"byteOffset":0,"componentType":5126,"count":258,"type":"VEC2"},{"bufferView":3,"byteOffset":0,"componentType":5123,"count":258,"type":"SCALAR"},{"bufferView":4,"byteOffset":0,"componentType":5126,"count":312,"type":"VEC3","min":[-1.59380647,8.51240563,-1.26562069],"max":[0.5,12.920467,2.09375]},{"bufferView":5,"byteOffset":0,"componentType":5126,"count":312,"type":"VEC3"},{"bufferView":6,"byteOffset":0,"componentType":5126,"count":312,"type":"VEC2"},{"bufferView":7,"byteOffset":0,"componentType":5123,"count":312,"type":"SCALAR"},{"bufferView":8,"byteOffset":0,"componentType":5126,"count":6,"type":"VEC3","min":[0.15625,12.5845295,0.5],"max":[0.65625,13.0845295,0.5]},{"bufferView":9,"byteOffset":0,"componentType":5126,"count":6,"type":"VEC3"},{"bufferView":10,"byteOffset":0,"componentType":5126,"count":6,"type":"VEC2"},{"bufferView":11,"byteOffset":0,"componentType":5123,"count":6,"type":"SCALAR"},{"bufferView":12,"byteOffset":0,"componentType":5126,"count":6,"type":"VEC3","min":[0.5,12.656011,0.5],"max":[1,13.201717,0.5]},{"bufferView":13,"byteOffset":0,"componentType":5126,"count":6,"type":"VEC3"},{"bufferView":14,"byteOffset":0,"componentType":5126,"count":6,"type":"VEC2"},{"bufferView":15,"byteOffset":0,"componentType":5123,"count":6,"type":"SCALAR"},{"bufferView":16,"byteOffset":0,"componentType":5126,"count":6,"type":"VEC3","min":[-0.893547076,10.7853839,1.75],"max":[0.856452924,11.7853839,1.75]},{"bufferView":17,"byteOffset":0,"componentType":5126,"count":6,"type":"VEC3"},{"bufferView":18,"byteOffset":0,"componentType":5126,"count":6,"type":"VEC2"},{"bufferView":19,"byteOffset":0,"componentType":5123,"count":6,"type":"SCALAR"},{"bufferView":20,"byteOffset":0,"componentType":5126,"count":6,"type":"VEC3","min":[0.870802326,11.201717,-0.5],"max":[0.870802326,11.451717,1.75]},{"bufferView":21,"byteOffset":0,"componentType":5126,"count":6,"type":"VEC3"},{"bufferView":22,"byteOffset":0,"componentType":5126,"count":6,"type":"VEC2"},{"bufferView":23,"byteOffset":0,"componentType":5123,"count":6,"type":"SCALAR"},{"bufferView":24,"byteOffset":0,"componentType":5126,"count":6,"type":"VEC3","min":[-0.898571014,11.201717,-0.5],"max":[-0.898571014,11.451717,1.75]},{"bufferView":25,"byteOffset":0,"componentType":5126,"count":6,"type":"VEC3"},{"bufferView":26,"byteOffset":0,"componentType":5126,"count":6,"type":"VEC2"},{"bufferView":27,"byteOffset":0,"componentType":5123,"count":6,"type":"SCALAR"},{"bufferView":28,"byteOffset":0,"componentType":5126,"count":36,"type":"VEC3","min":[-0.25,10.0718545,0.25],"max":[0.25,10.451717,0.75]},{"bufferView":29,"byteOffset":0,"componentType":5126,"count":36,"type":"VEC3"},{"bufferView":30,"byteOffset":0,"componentType":5126,"count":36,"type":"VEC2"},{"bufferView":31,"byteOffset":0,"componentType":5123,"count":36,"type":"SCALAR"},{"bufferView":32,"byteOffset":0,"componentType":5126,"count":42,"type":"VEC3","min":[-0.939666851,7.63488119,0.0847439734],"max":[0.933265763,10.0392049,1.4921125]},{"bufferView":33,"byteOffset":0,"componentType":5126,"count":42,"type":"VEC3"},{"bufferView":34,"byteOffset":0,"componentType":5126,"count":42,"type":"VEC2"},{"bufferView":35,"byteOffset":0,"componentType":5123,"count":42,"type":"SCALAR"},{"bufferView":36,"byteOffset":0,"componentType":5126,"count":84,"type":"VEC3","min":[-1.50243411,6.20673291,-0.84640204],"max":[1.43942836,7.64357093,1.83253652]},{"bufferView":37,"byteOffset":0,"componentType":5126,"count":84,"type":"VEC3"},{"bufferView":38,"byteOffset":0,"componentType":5126,"count":84,"type":"VEC2"},{"bufferView":39,"byteOffset":0,"componentType":5123,"count":84,"type":"SCALAR"},{"bufferView":40,"byteOffset":0,"componentType":5126,"count":84,"type":"VEC3","min":[-1.02537897,2.18947976,0.0353251211],"max":[0.000545668353,6.39357093,1.06986526]},{"bufferView":41,"byteOffset":0,"componentType":5126,"count":84,"type":"VEC3"},{"bufferView":42,"byteOffset":0,"componentType":5126,"count":84,"type":"VEC2"},{"bufferView":43,"byteOffset":0,"componentType":5123,"count":84,"type":"SCALAR"},{"bufferView":44,"byteOffset":0,"componentType":5126,"count":84,"type":"VEC3","min":[-0.0446337489,2.18947976,0.0275126211],"max":[1.03734582,6.39357093,1.07386612]},{"bufferView":45,"byteOffset":0,"componentType":5126,"count":84,"type":"VEC3"},{"bufferView":46,"byteOffset":0,"componentType":5126,"count":84,"type":"VEC2"},{"bufferView":47,"byteOffset":0,"componentType":5123,"count":84,"type":"SCALAR"},{"bufferView":48,"byteOffset":0,"componentType":5126,"count":204,"type":"VEC3","min":[0.560463107,7.34214624,0.497961491],"max":[4.40367094,9.92549152,2.3799556]},{"bufferView":49,"byteOffset":0,"componentType":5126,"count":204,"type":"VEC3"},{"bufferView":50,"byteOffset":0,"componentType":5126,"count":204,"type":"VEC2"},{"bufferView":51,"byteOffset":0,"componentType":5123,"count":204,"type":"SCALAR"},{"bufferView":52,"byteOffset":0,"componentType":5126,"count":126,"type":"VEC3","min":[-0.014020241,1.1899247,0.247558623],"max":[0.892673757,2.1899247,1.97908443]},{"bufferView":53,"byteOffset":0,"componentType":5126,"count":126,"type":"VEC3"},{"bufferView":54,"byteOffset":0,"componentType":5126,"count":126,"type":"VEC2"},{"bufferView":55,"byteOffset":0,"componentType":5123,"count":126,"type":"SCALAR"},{"bufferView":56,"byteOffset":0,"componentType":5126,"count":126,"type":"VEC3","min":[-0.939548757,1.1899247,0.247558623],"max":[-0.0340418839,2.1899247,1.97908443]},{"bufferView":57,"byteOffset":0,"componentType":5126,"count":126,"type":"VEC3"},{"bufferView":58,"byteOffset":0,"componentType":5126,"count":126,"type":"VEC2"},{"bufferView":59,"byteOffset":0,"componentType":5123,"count":126,"type":"SCALAR"},{"bufferView":60,"byteOffset":0,"componentType":5126,"count":204,"type":"VEC3","min":[-4.40367094,7.34214624,0.497961491],"max":[-0.560463107,9.92549152,2.3799556]},{"bufferView":61,"byteOffset":0,"componentType":5126,"count":204,"type":"VEC3"},{"bufferView":62,"byteOffset":0,"componentType":5126,"count":204,"type":"VEC2"},{"bufferView":63,"byteOffset":0,"componentType":5123,"count":204,"type":"SCALAR"}],
 "bufferViews": [{"buffer":0,"byteOffset":0,"byteLength":3096,"target":34962},{"buffer":0,"byteOffset":3096,"byteLength":3096,"target":34962},{"buffer":0,"byteOffset":6192,"byteLength":2064,"target":34962},{"buffer":0,"byteOffset":8256,"byteLength":516,"target":34963},{"buffer":0,"byteOffset":8772,"byteLength":3744,"target":34962},{"buffer":0,"byteOffset":12516,"byteLength":3744,"target":34962},{"buffer":0,"byteOffset":16260,"byteLength":2496,"target":34962},{"buffer":0,"byteOffset":18756,"byteLength":624,"target":34963},{"buffer":0,"byteOffset":19380,"byteLength":72,"target":34962},{"buffer":0,"byteOffset":19452,"byteLength":72,"target":34962},{"buffer":0,"byteOffset":19524,"byteLength":48,"target":34962},{"buffer":0,"byteOffset":19572,"byteLength":12,"target":34963},{"buffer":0,"byteOffset":19584,"byteLength":72,"target":34962},{"buffer":0,"byteOffset":19656,"byteLength":72,"target":34962},{"buffer":0,"byteOffset":19728,"byteLength":48,"target":34962},{"buffer":0,"byteOffset":19776,"byteLength":12,"target":34963},{"buffer":0,"byteOffset":19788,"byteLength":72,"target":34962},{"buffer":0,"byteOffset":19860,"byteLength":72,"target":34962},{"buffer":0,"byteOffset":19932,"byteLength":48,"target":34962},{"buffer":0,"byteOffset":19980,"byteLength":12,"target":34963},{"buffer":0,"byteOffset":19992,"byteLength":72,"target":34962},{"buffer":0,"byteOffset":20064,"byteLength":72,"target":34962},{"buffer":0,"byteOffset":20136,"byteLength":48,"target":34962},{"buffer":0,"byteOffset":20184,"byteLength":12,"target":34963},{"buffer":0,"byteOffset":20196,"byteLength":72,"target":34962},{"buffer":0,"byteOffset":20268,"byteLength":72,"target":34962},{"buffer":0,"byteOffset":20340,"byteLength":48,"target":34962},{"buffer":0,"byteOffset":20388,"byteLength":12,"target":34963},{"buffer":0,"byteOffset":20400,"byteLength":432,"target":34962},{"buffer":0,"byteOffset":20832,"byteLength":432,"target":34962},{"buffer":0,"byteOffset":21264,"byteLength":288,"target":34962},{"buffer":0,"byteOffset":21552,"byteLength":72,"target":34963},{"buffer":0,"byteOffset":21624,"byteLength":504,"target":34962},{"buffer":0,"byteOffset":22128,"byteLength":504,"target":34962},{"buffer":0,"byteOffset":22632,"byteLength":336,"target":34962},{"buffer":0,"byteOffset":22968,"byteLength":84,"target":34963},{"buffer":0,"byteOffset":23052,"byteLength":1008,"target":34962},{"buffer":0,"byteOffset":24060,"byteLength":1008,"target":34962},{"buffer":0,"byteOffset":25068,"byteLength":672,"target":34962},{"buffer":0,"byteOffset":25740,"byteLength":168,"target":34963},{"buffer":0,"byteOffset":25908,"byteLength":1008,"target":34962},{"buffer":0,"byteOffset":26916,"byteLength":1008,"target":34962},{"buffer":0,"byteOffset":27924,"byteLength":672,"target":34962},{"buffer":0,"byteOffset":28596,"byteLength":168,"target":34963},{"buffer":0,"byteOffset":28764,"byteLength":1008,"target":34962},{"buffer":0,"byteOffset":29772,"byteLength":1008,"target":34962},{"buffer":0,"byteOffset":30780,"byteLength":672,"target":34962},{"buffer":0,"byteOffset":31452,"byteLength":168,"target":34963},{"buffer":0,"byteOffset":31620,"byteLength":2448,"target":34962},{"buffer":0,"byteOffset":34068,"byteLength":2448,"target":34962},{"buffer":0,"byteOffset":36516,"byteLength":1632,"target":34962},{"buffer":0,"byteOffset":38148,"byteLength":408,"target":34963},{"buffer":0,"byteOffset":38556,"byteLength":1512,"target":34962},{"buffer":0,"byteOffset":40068,"byteLength":1512,"target":34962},{"buffer":0,"byteOffset":41580,"byteLength":1008,"target":34962},{"buffer":0,"byteOffset":42588,"byteLength":252,"target":34963},{"buffer":0,"byteOffset":42840,"byteLength":1512,"target":34962},{"buffer":0,"byteOffset":44352,"byteLength":1512,"target":34962},{"buffer":0,"byteOffset":45864,"byteLength":1008,"target":34962},{"buffer":0,"byteOffset":46872,"byteLength":252,"target":34963},{"buffer":0,"byteOffset":47124,"byteLength":2448,"target":34962},{"buffer":0,"byteOffset":49572,"byteLength":2448,"target":34962},{"buffer":0,"byteOffset":52020,"byteLength":1632,"target":34962},{"buffer":0,"byteOffset":53652,"byteLength":408,"target":34963}],
 "buffers": [{ "uri": "20260418_193043_rikafinished.bin", "byteLength": 54060 }]
}